<?xml version="1.0" encoding="UTF-8" standalone="no"?>
<!-- Created with Inkscape (http://www.inkscape.org/) -->

<svg
   xmlns:dc="http://purl.org/dc/elements/1.1/"
   xmlns:cc="http://creativecommons.org/ns#"
   xmlns:rdf="http://www.w3.org/1999/02/22-rdf-syntax-ns#"
   xmlns:svg="http://www.w3.org/2000/svg"
   xmlns="http://www.w3.org/2000/svg"
   xmlns:sodipodi="http://sodipodi.sourceforge.net/DTD/sodipodi-0.dtd"
   xmlns:inkscape="http://www.inkscape.org/namespaces/inkscape"
   width="25.277121mm"
   height="28.669189mm"
   viewBox="0 0 89.5646 101.58374"
   id="svg4511"
   version="1.1"
   inkscape:version="0.91 r13725"
   sodipodi:docname="guitar.svg">
  <defs
     id="defs4513" />
  <sodipodi:namedview
     id="base"
     pagecolor="#ffffff"
     bordercolor="#666666"
     borderopacity="1.0"
     inkscape:pageopacity="0.0"
     inkscape:pageshadow="2"
     inkscape:zoom="3.959798"
     inkscape:cx="-37.475536"
     inkscape:cy="100.10323"
     inkscape:document-units="px"
     inkscape:current-layer="layer1"
     showgrid="false"
     fit-margin-top="0"
     fit-margin-left="0"
     fit-margin-right="0"
     fit-margin-bottom="0"
     inkscape:window-width="1855"
     inkscape:window-height="1056"
     inkscape:window-x="65"
     inkscape:window-y="24"
     inkscape:window-maximized="1" />
  <metadata
     id="metadata4516">
    <rdf:RDF>
      <cc:Work
         rdf:about="">
        <dc:format>image/svg+xml</dc:format>
        <dc:type
           rdf:resource="http://purl.org/dc/dcmitype/StillImage" />
        <dc:title></dc:title>
      </cc:Work>
    </rdf:RDF>
  </metadata>
  <g
     inkscape:label="Layer 1"
     inkscape:groupmode="layer"
     id="layer1"
     transform="translate(-415.34645,-483.32892)">
    <path
       d="m 447.59773,567.22252 -15.00375,-12.13375 3.7675,-4.6575 15.00125,12.135 -3.765,4.65625"
       style="fill:#4f4c4c;fill-opacity:1;fill-rule:nonzero;stroke:none"
       id="path4403"
       inkscape:connector-curvature="0" />
    <path
       d="m 429.29398,575.49877 -0.3075,-0.225 -0.1275,-0.1075 -0.0563,-0.0475 -0.0562,-0.0437 -0.10125,-0.0775 -0.31625,-0.2775 c -9.23375,-8.1325 -11.76625,-20.3125 -5.76375,-27.735 1.69625,-2.0975 3.9075,-2.65125 7.3725,-3.3825 3.7125,-0.78625 8.3325,-1.76 11.875,-6.13875 3.365,-4.1625 4.21875,-6.64875 4.90625,-8.6475 0.46125,-1.33875 0.74125,-2.1475 1.885,-3.5625 3.63125,-4.49 10.42,-5.4325 16.6475,-2.71875 l -12.82125,15.51 c -2.72375,-0.19125 -5.4975,0.9 -7.34375,3.185 -3.005,3.71375 -2.43,9.16125 1.28625,12.16375 3.71375,3.00625 9.16125,2.43 12.165,-1.285 1.84875,-2.285 2.33625,-5.22375 1.5775,-7.84625 l 12.48625,-15.78375 c 3.95625,5.5225 4.455,12.35875 0.8225,16.84875 -1.14375,1.415 -1.875,1.8575 -3.09,2.58625 -1.81,1.09 -4.06125,2.4475 -7.4275,6.60875 -3.54125,4.37875 -3.53,9.1025 -3.51875,12.89625 0.007,3.54125 -0.0725,5.8175 -1.76875,7.91625 -6.00375,7.42125 -18.44375,7.4925 -28.325,0.16375 z m 66.31625,-87.805 c 0.29875,-0.37125 0.8425,-0.42875 1.21375,-0.12875 0.37125,0.3 0.42875,0.84625 0.12875,1.2175 l -5.1425,6.36 c -0.17625,0.21625 -0.4375,0.31375 -0.6975,0.305 l -0.80375,-0.64875 c -0.06,-0.2525 -0.0213,-0.52875 0.155,-0.745 l 5.14625,-6.36 z m 3.26125,2.63875 c 0.3,-0.37125 0.84625,-0.43 1.2175,-0.13 0.37,0.3025 0.42625,0.845 0.12625,1.21625 l -5.1425,6.36125 c -0.1775,0.2175 -0.4375,0.315 -0.6975,0.30625 l -0.8025,-0.6475 c -0.0612,-0.255 -0.0213,-0.52875 0.155,-0.74625 l 5.14375,-6.36 z m -32.86,66.70125 c 5.3075,-6.56125 6.98625,-4.82875 10.5175,-9.19625 5.035,-6.22625 4.2325,-15.535 -1.365,-22.59625 l 18.13375,-22.92375 c 0.45,0.275 1.0475,0.1825 1.3875,-0.24 l 0.73875,-0.84375 c -0.0175,0.40625 0.1475,0.815 0.48875,1.09125 l 1.23125,0.99625 c 0.57125,0.46125 1.41,0.3725 1.87125,-0.19875 l 0.009,-0.01 c 0.46125,-0.57125 0.37375,-1.4075 -0.1975,-1.87125 l -1.2325,-0.99625 c -0.31375,-0.25375 -0.70625,-0.33625 -1.075,-0.26875 l 1.8775,-2.1525 c -0.15125,0.50125 0.001,1.06875 0.435,1.41875 l 1.23375,0.9975 c 0.57125,0.4625 1.41,0.37375 1.8725,-0.1975 l 0.009,-0.0113 c 0.46,-0.57 0.3725,-1.40875 -0.2,-1.87125 l -1.2325,-0.99625 c -0.4075,-0.33125 -0.95,-0.375 -1.395,-0.16875 l 1.89375,-2.17125 c -0.0263,0.4175 0.14,0.83625 0.48875,1.1175 l 1.2325,0.99875 c 0.57125,0.46125 1.41,0.3725 1.87125,-0.1975 l 0.009,-0.01 c 0.4625,-0.57125 0.37375,-1.41 -0.1975,-1.87125 l -1.235,-0.99625 c -0.32125,-0.26 -0.72625,-0.34125 -1.10375,-0.26375 l 2.135,-2.45 c 0.3725,-0.46 0.30375,-1.1375 -0.1575,-1.51 l -7.51,-6.07375 c -0.4625,-0.3725 -1.1375,-0.30125 -1.51,0.16125 l -1.85875,2.47875 c -0.0512,-0.31 -0.2075,-0.60375 -0.47125,-0.81625 l -1.23125,-0.99625 c -0.57125,-0.4625 -1.4075,-0.375 -1.87125,0.1975 l -0.008,0.009 c -0.46375,0.5725 -0.375,1.41 0.19625,1.8725 l 1.23375,0.9975 c 0.28875,0.2325 0.64875,0.325 0.9925,0.28375 l -1.4925,1.99 c 0.006,-0.39375 -0.15625,-0.7875 -0.48625,-1.05625 l -1.23375,-0.995 c -0.57,-0.4625 -1.41,-0.3725 -1.87125,0.1975 l -0.009,0.0113 c -0.46125,0.57125 -0.37375,1.41125 0.19875,1.87125 l 1.2325,0.99625 c 0.355,0.2875 0.815,0.3625 1.2225,0.2375 l -1.4775,1.97375 c -0.0562,-0.3 -0.21,-0.58375 -0.46625,-0.79 l -1.23375,-0.9975 c -0.57,-0.4625 -1.40875,-0.3725 -1.87125,0.19875 l -0.009,0.009 c -0.46125,0.57125 -0.37125,1.41 0.20125,1.8725 l 1.23125,0.99625 c 0.28375,0.22875 0.63125,0.32125 0.96625,0.29 l -0.5775,0.77 c -0.3725,0.46 -0.3025,1.1325 0.15625,1.505 l -18.615,22.5175 c -8.0775,-3.99625 -17.34875,-2.83625 -22.3825,3.39 -3.5325,4.36875 -1.4875,5.64625 -6.795,12.21 -5.3075,6.56125 -13.90625,2.91875 -19.245,9.52125 -7.38375,9.12875 -4.545,23.755 6.23,33.24375 l -0.0188,0.0213 c 0.0387,0.0288 0.0738,0.06 0.11,0.09 0.16875,0.135 0.34,0.2625 0.51,0.395 0.16375,0.13875 0.325,0.27875 0.4925,0.41375 0.035,0.03 0.0738,0.06 0.11125,0.09 l 0.0188,-0.0225 c 11.53125,8.5525 26.425,8.2675 33.80625,-0.85875 5.3425,-6.60375 -0.0175,-14.25 5.29,-20.8125"
       style="fill:#4f4c4c;fill-opacity:1;fill-rule:nonzero;stroke:none"
       id="path4405"
       inkscape:connector-curvature="0" />
  </g>
</svg>
