<?xml version="1.0" encoding="UTF-8" standalone="no"?>
<!-- Created with Inkscape (http://www.inkscape.org/) -->

<svg
   xmlns:dc="http://purl.org/dc/elements/1.1/"
   xmlns:cc="http://creativecommons.org/ns#"
   xmlns:rdf="http://www.w3.org/1999/02/22-rdf-syntax-ns#"
   xmlns:svg="http://www.w3.org/2000/svg"
   xmlns="http://www.w3.org/2000/svg"
   xmlns:sodipodi="http://sodipodi.sourceforge.net/DTD/sodipodi-0.dtd"
   xmlns:inkscape="http://www.inkscape.org/namespaces/inkscape"
   width="12.7mm"
   height="25.752071mm"
   viewBox="0 0 45 91.247494"
   id="svg4511"
   version="1.1"
   inkscape:version="0.91 r13725"
   sodipodi:docname="mic.svg">
  <defs
     id="defs4513" />
  <sodipodi:namedview
     id="base"
     pagecolor="#ffffff"
     bordercolor="#666666"
     borderopacity="1.0"
     inkscape:pageopacity="0.0"
     inkscape:pageshadow="2"
     inkscape:zoom="3.959798"
     inkscape:cx="7.0870443"
     inkscape:cy="47.586606"
     inkscape:document-units="px"
     inkscape:current-layer="layer1"
     showgrid="false"
     fit-margin-top="0"
     fit-margin-left="0"
     fit-margin-right="0"
     fit-margin-bottom="0"
     inkscape:window-width="1855"
     inkscape:window-height="1056"
     inkscape:window-x="65"
     inkscape:window-y="24"
     inkscape:window-maximized="1" />
  <metadata
     id="metadata4516">
    <rdf:RDF>
      <cc:Work
         rdf:about="">
        <dc:format>image/svg+xml</dc:format>
        <dc:type
           rdf:resource="http://purl.org/dc/dcmitype/StillImage" />
        <dc:title></dc:title>
      </cc:Work>
    </rdf:RDF>
  </metadata>
  <g
     inkscape:label="Layer 1"
     inkscape:groupmode="layer"
     id="layer1"
     transform="translate(-370.78387,-441.14853)">
    <path
       d="m 393.28387,507.81478 c -8.0325,0 -14.6725,-6.0175 -15.68375,-13.78 l 7.45375,0 c 1.665,0 3.015,-1.695 3.015,-3.78625 0,-2.09125 -1.35,-3.78625 -3.015,-3.78625 l -7.6025,0 0,-2.7575 7.6025,0 c 1.665,0 3.015,-1.695 3.015,-3.785 0,-2.09125 -1.35,-3.78625 -3.015,-3.78625 l -7.6025,0 0,-2.7575 7.6025,0 c 1.665,0 3.015,-1.695 3.015,-3.78625 0,-2.09 -1.35,-3.785 -3.015,-3.785 l -7.6025,0 0,-2.15625 c 0,-8.73125 7.1025,-15.83375 15.8325,-15.83375 8.73125,0 15.83375,7.1025 15.83375,15.83375 l 0,1.73875 -7.6025,0 c -1.665,0 -3.015,1.695 -3.015,3.78625 0,2.09125 1.35,3.785 3.015,3.785 l 7.6025,0 0,2.75875 -7.6025,0 c -1.665,0 -3.015,1.695 -3.015,3.78625 0,2.09 1.35,3.785 3.015,3.785 l 7.6025,0 0,2.7575 -7.6025,0 c -1.665,0 -3.015,1.695 -3.015,3.78625 0,2.09125 1.35,3.78625 3.015,3.78625 l 7.5175,0 c -0.82125,7.96375 -7.57,14.19625 -15.74875,14.19625 z m 0,-66.66625 c -12.42625,0 -22.5,10.07375 -22.5,22.5 l 0,28.3325 c 0,10.7075 7.48125,19.66125 17.5,21.935 l 0,18.48 10,0 0,-18.48 c 10.01875,-2.27375 17.5,-11.2275 17.5,-21.935 l 0,-28.3325 c 0,-12.42625 -10.07375,-22.5 -22.5,-22.5"
       style="fill:#4f4c4c;fill-opacity:1;fill-rule:nonzero;stroke:none"
       id="path4217"
       inkscape:connector-curvature="0" />
  </g>
</svg>
