<?xml version="1.0" encoding="UTF-8" standalone="no"?>
<!-- Created with Inkscape (http://www.inkscape.org/) -->

<svg
   xmlns:dc="http://purl.org/dc/elements/1.1/"
   xmlns:cc="http://creativecommons.org/ns#"
   xmlns:rdf="http://www.w3.org/1999/02/22-rdf-syntax-ns#"
   xmlns:svg="http://www.w3.org/2000/svg"
   xmlns="http://www.w3.org/2000/svg"
   xmlns:sodipodi="http://sodipodi.sourceforge.net/DTD/sodipodi-0.dtd"
   xmlns:inkscape="http://www.inkscape.org/namespaces/inkscape"
   width="25.226433mm"
   height="24.155399mm"
   viewBox="0 0 89.384999 85.589995"
   id="svg4511"
   version="1.1"
   inkscape:version="0.91 r13725"
   sodipodi:docname="percussion.svg">
  <defs
     id="defs4513" />
  <sodipodi:namedview
     id="base"
     pagecolor="#ffffff"
     bordercolor="#666666"
     borderopacity="1.0"
     inkscape:pageopacity="0.0"
     inkscape:pageshadow="2"
     inkscape:zoom="3.959798"
     inkscape:cx="85.872194"
     inkscape:cy="38.358749"
     inkscape:document-units="px"
     inkscape:current-layer="layer1"
     showgrid="false"
     fit-margin-top="0"
     fit-margin-left="0"
     fit-margin-right="0"
     fit-margin-bottom="0"
     inkscape:window-width="1855"
     inkscape:window-height="1056"
     inkscape:window-x="65"
     inkscape:window-y="24"
     inkscape:window-maximized="1" />
  <metadata
     id="metadata4516">
    <rdf:RDF>
      <cc:Work
         rdf:about="">
        <dc:format>image/svg+xml</dc:format>
        <dc:type
           rdf:resource="http://purl.org/dc/dcmitype/StillImage" />
        <dc:title></dc:title>
      </cc:Work>
    </rdf:RDF>
  </metadata>
  <g
     inkscape:label="Layer 1"
     inkscape:groupmode="layer"
     id="layer1"
     transform="translate(-291.99872,-437.57817)">
    <path
       d="m 364.65247,473.13192 c -2.965,1.9325 -4.92875,5.2725 -4.92875,9.075 0,4.3875 2.6125,8.1575 6.36375,9.86125 0.58875,-2.36875 0.90125,-4.81 0.90125,-7.275 0,-4.13125 -0.83375,-8.07 -2.33625,-11.66125"
       style="fill:#4f4c4c;fill-opacity:1;fill-rule:nonzero;stroke:none"
       id="path4363"
       inkscape:connector-curvature="0" />
    <path
       d="m 375.13747,472.40567 c 1.26125,3.90625 1.95125,8.06625 1.95125,12.3875 0,2.18375 -0.18125,4.325 -0.51625,6.4175 2.9,-1.9425 4.81125,-5.25125 4.81125,-9.00375 0,-4.33875 -2.56,-8.07375 -6.24625,-9.80125"
       style="fill:#4f4c4c;fill-opacity:1;fill-rule:nonzero;stroke:none"
       id="path4365"
       inkscape:connector-curvature="0" />
    <path
       d="m 313.65872,482.20692 c 0,-3.8025 -1.9625,-7.1425 -4.92875,-9.075 -1.50375,3.59125 -2.335,7.53 -2.335,11.66125 0,2.465 0.3125,4.90625 0.90125,7.2725 3.75,-1.70125 6.3625,-5.47125 6.3625,-9.85875"
       style="fill:#4f4c4c;fill-opacity:1;fill-rule:nonzero;stroke:none"
       id="path4367"
       inkscape:connector-curvature="0" />
    <path
       d="m 296.29497,484.79317 c 0,-4.32125 0.68875,-8.48125 1.95,-12.3875 -3.68625,1.7275 -6.24625,5.4625 -6.24625,9.80125 0,3.75375 1.91125,7.06125 4.8125,9.00375 -0.33625,-2.0925 -0.51625,-4.23375 -0.51625,-6.4175"
       style="fill:#4f4c4c;fill-opacity:1;fill-rule:nonzero;stroke:none"
       id="path4369"
       inkscape:connector-curvature="0" />
    <path
       d="m 362.33872,468.69192 c -2.64375,-4.195 -6.285,-7.69875 -10.59125,-10.17375 0.33125,5.61 4.92375,10.06625 10.59125,10.17375"
       style="fill:#4f4c4c;fill-opacity:1;fill-rule:nonzero;stroke:none"
       id="path4371"
       inkscape:connector-curvature="0" />
    <path
       d="m 371.38122,464.11942 c 1.2525,-1.765 1.995,-3.9175 1.995,-6.24875 0,-5.98125 -4.85,-10.83 -10.83125,-10.83 -2.4825,0 -4.76375,0.845 -6.59,2.25125 6.3725,3.4725 11.70875,8.61375 15.42625,14.8275"
       style="fill:#4f4c4c;fill-opacity:1;fill-rule:nonzero;stroke:none"
       id="path4373"
       inkscape:connector-curvature="0" />
    <path
       d="m 311.04372,468.69192 c 5.6675,-0.1075 10.25875,-4.56375 10.59125,-10.17375 -4.30625,2.475 -7.94875,5.97875 -10.59125,10.17375"
       style="fill:#4f4c4c;fill-opacity:1;fill-rule:nonzero;stroke:none"
       id="path4375"
       inkscape:connector-curvature="0" />
    <path
       d="m 317.42747,449.29192 c -1.82625,-1.40625 -4.1075,-2.25125 -6.59125,-2.25125 -5.98125,0 -10.82875,4.85125 -10.82875,10.83 0,2.3325 0.74125,4.485 1.99375,6.25 3.7175,-6.215 9.0525,-11.35625 15.42625,-14.82875"
       style="fill:#4f4c4c;fill-opacity:1;fill-rule:nonzero;stroke:none"
       id="path4377"
       inkscape:connector-curvature="0" />
    <path
       d="m 328.60622,455.59817 c 1.985,2.22875 4.86625,3.64 8.085,3.64 3.21875,0 6.1,-1.41125 8.08375,-3.64 -2.575,-0.715 -5.285,-1.10375 -8.08375,-1.10375 -2.8,0 -5.50875,0.38875 -8.085,1.10375"
       style="fill:#4f4c4c;fill-opacity:1;fill-rule:nonzero;stroke:none"
       id="path4379"
       inkscape:connector-curvature="0" />
    <path
       d="m 336.69122,444.39442 c 3.63125,0 7.1475,0.49125 10.4975,1.39125 -1.17375,-4.71125 -5.4225,-8.2075 -10.4975,-8.2075 -5.075,0 -9.3225,3.49625 -10.4975,8.2075 3.35,-0.9 6.86625,-1.39125 10.4975,-1.39125"
       style="fill:#4f4c4c;fill-opacity:1;fill-rule:nonzero;stroke:none"
       id="path4381"
       inkscape:connector-curvature="0" />
    <path
       d="m 361.34122,505.65692 c -3.52875,-1.00125 -13.25,2.97125 -24.5525,2.7275 -11.47125,0.2475 -21.3125,-3.84625 -24.7025,-2.67375 -4.80375,-5.6425 -7.7125,-12.94625 -7.7125,-20.9175 0,-17.82 14.4975,-32.31875 32.31875,-32.31875 17.81875,0 32.31625,14.49875 32.31625,32.31875 0,7.94625 -2.89,15.22875 -7.6675,20.86375 z m -24.64875,-59.24125 c -21.195,0 -38.3775,17.1825 -38.3775,38.3775 0,21.19375 17.1825,38.375 38.3775,38.375 21.19375,0 38.37625,-17.18125 38.37625,-38.375 0,-21.195 -17.1825,-38.3775 -38.37625,-38.3775"
       style="fill:#4f4c4c;fill-opacity:1;fill-rule:nonzero;stroke:none"
       id="path4383"
       inkscape:connector-curvature="0" />
  </g>
</svg>
