<?xml version="1.0" encoding="UTF-8" standalone="no"?>
<!-- Created with Inkscape (http://www.inkscape.org/) -->

<svg
   xmlns:dc="http://purl.org/dc/elements/1.1/"
   xmlns:cc="http://creativecommons.org/ns#"
   xmlns:rdf="http://www.w3.org/1999/02/22-rdf-syntax-ns#"
   xmlns:svg="http://www.w3.org/2000/svg"
   xmlns="http://www.w3.org/2000/svg"
   xmlns:sodipodi="http://sodipodi.sourceforge.net/DTD/sodipodi-0.dtd"
   xmlns:inkscape="http://www.inkscape.org/namespaces/inkscape"
   width="22.225mm"
   height="21.871481mm"
   viewBox="0 0 78.750001 77.497373"
   id="svg4511"
   version="1.1"
   inkscape:version="0.91 r13725"
   sodipodi:docname="piano.svg">
  <defs
     id="defs4513" />
  <sodipodi:namedview
     id="base"
     pagecolor="#ffffff"
     bordercolor="#666666"
     borderopacity="1.0"
     inkscape:pageopacity="0.0"
     inkscape:pageshadow="2"
     inkscape:zoom="3.959798"
     inkscape:cx="34.388273"
     inkscape:cy="37.730024"
     inkscape:document-units="px"
     inkscape:current-layer="layer1"
     showgrid="false"
     fit-margin-top="0"
     fit-margin-left="0"
     fit-margin-right="0"
     fit-margin-bottom="0"
     inkscape:window-width="1855"
     inkscape:window-height="1056"
     inkscape:window-x="65"
     inkscape:window-y="24"
     inkscape:window-maximized="1" />
  <metadata
     id="metadata4516">
    <rdf:RDF>
      <cc:Work
         rdf:about="">
        <dc:format>image/svg+xml</dc:format>
        <dc:type
           rdf:resource="http://purl.org/dc/dcmitype/StillImage" />
        <dc:title></dc:title>
      </cc:Work>
    </rdf:RDF>
  </metadata>
  <g
     inkscape:label="Layer 1"
     inkscape:groupmode="layer"
     id="layer1"
     transform="translate(-343.48264,-445.04208)">
    <path
       d="m 419.94964,517.97571 c 0,1.26125 -1.02125,2.2825 -2.2825,2.2825 l -69.61875,0 c -1.26125,0 -2.2825,-1.02125 -2.2825,-2.2825 l 0,-12.555 c 0,-1.26 1.02125,-2.2825 2.2825,-2.2825 l 3.99375,0 0,11.4125 4.565,0 0,-11.4125 3.5875,0 0,11.4125 4.565,0 0,-11.4125 3.58625,0 0,11.4125 4.56625,0 0,-11.4125 3.58625,0 0,11.4125 4.56625,0 0,-11.4125 3.58625,0 0,11.4125 4.565,0 0,-11.4125 3.5875,0 0,11.4125 4.565,0 0,-11.4125 3.5875,0 0,11.4125 4.565,0 0,-11.4125 3.58625,0 0,11.4125 4.56625,0 0,-11.4125 3.99375,0 c 1.26125,0 2.2825,1.0225 2.2825,2.2825 l 0,12.555 z m 2.2825,-21.68625 c 0,-10.085 -8.17625,-15.97625 -18.26125,-15.97625 0,0 -10.59125,2.18875 -19.3775,-2.285 -8.78625,-4.47375 -6.7875,-28.435 -22.2775,-32.5475 -10.05125,-2.66875 -18.83125,7.29 -18.83125,17.69 l 0,33.1175 c 0,0.007 -0.002,0.015 -0.002,0.0225 l 0,21.66375 c 0,2.52125 2.04375,4.565 4.56625,4.565 l 69.61875,0 c 2.5225,0 4.565,-2.04375 4.565,-4.565 l 0,-21.66375 c 0,-0.002 0,-0.005 0,-0.006 0,-0.006 0,-0.0113 0,-0.015"
       style="fill:#4f4c4c;fill-opacity:1;fill-rule:nonzero;stroke:none"
       id="path4251"
       inkscape:connector-curvature="0" />
  </g>
</svg>
