<?xml version="1.0" encoding="UTF-8" standalone="no"?>
<!-- Created with Inkscape (http://www.inkscape.org/) -->

<svg
   xmlns:dc="http://purl.org/dc/elements/1.1/"
   xmlns:cc="http://creativecommons.org/ns#"
   xmlns:rdf="http://www.w3.org/1999/02/22-rdf-syntax-ns#"
   xmlns:svg="http://www.w3.org/2000/svg"
   xmlns="http://www.w3.org/2000/svg"
   xmlns:sodipodi="http://sodipodi.sourceforge.net/DTD/sodipodi-0.dtd"
   xmlns:inkscape="http://www.inkscape.org/namespaces/inkscape"
   width="26.2593mm"
   height="16.611328mm"
   viewBox="0 0 93.044765 58.859035"
   id="svg4511"
   version="1.1"
   inkscape:version="0.91 r13725"
   sodipodi:docname="trumpet.svg">
  <defs
     id="defs4513" />
  <sodipodi:namedview
     id="base"
     pagecolor="#ffffff"
     bordercolor="#666666"
     borderopacity="1.0"
     inkscape:pageopacity="0.0"
     inkscape:pageshadow="2"
     inkscape:zoom="3.959798"
     inkscape:cx="-3.5436657"
     inkscape:cy="13.832153"
     inkscape:document-units="px"
     inkscape:current-layer="layer1"
     showgrid="false"
     fit-margin-top="0"
     fit-margin-left="0"
     fit-margin-right="0"
     fit-margin-bottom="0"
     inkscape:window-width="1855"
     inkscape:window-height="1056"
     inkscape:window-x="65"
     inkscape:window-y="24"
     inkscape:window-maximized="1" />
  <metadata
     id="metadata4516">
    <rdf:RDF>
      <cc:Work
         rdf:about="">
        <dc:format>image/svg+xml</dc:format>
        <dc:type
           rdf:resource="http://purl.org/dc/dcmitype/StillImage" />
        <dc:title></dc:title>
      </cc:Work>
    </rdf:RDF>
  </metadata>
  <g
     inkscape:label="Layer 1"
     inkscape:groupmode="layer"
     id="layer1"
     transform="translate(-381.41458,-439.78254)">
    <path
       d="m 445.57385,482.56197 -2.5175,0.84375 c 0.575,-1.4125 0.6725,-3.02875 0.14875,-4.58875 -1.16125,-3.4625 -4.90875,-5.3275 -8.37125,-4.16625 l -1.705,0.57125 -1.22375,-3.65125 8.9725,-3.01 c 3.86001,-1.295 8.05375,0.7925 9.34875,4.6525 1.29375,3.86 -0.7925,8.05375 -4.6525,9.34875 z m -7.35125,2.19 -1.70625,0.57125 -2.57125,-7.66625 1.70625,-0.57125 c 2.11375,-0.71 4.40875,0.43375 5.11875,2.5475 0.70875,2.11375 -0.435,4.40875 -2.5475,5.11875 z m -25.89125,4.41875 c -0.66125,-1.97375 0.3025,-4.0875 2.15,-4.93875 l 2.5425,7.5825 c -1.9875,0.43375 -4.03125,-0.6725 -4.6925,-2.64375 z m 0.45125,4.38875 -2.5175,0.84375 c -3.86,1.295 -8.0525,-0.79375 -9.3475,-4.65375 -1.295,-3.86 0.7925,-8.05375 4.6525,-9.34875 l 6.85625,-2.2975 1.23125,3.6725 c -3.1975,1.31 -4.875,4.8875 -3.76,8.21125 0.5225,1.56125 1.575,2.79125 2.885,3.5725 z m 13.1125,-15.91125 -1.22625,-3.65125 2.22625,-0.7475 1.22375,3.6525 -2.22375,0.74625 z m 0.81626,2.435 2.22499,-0.745 2.57,7.665 -2.22375,0.74625 -2.57124,-7.66625 z m -7.23501,2.42625 2.225,-0.74625 2.57125,7.66625 -2.225,0.74625 -2.57125,-7.66625 z m -2.04125,-6.0875 2.225,-0.745 1.225,3.65125 -2.225,0.7475 -1.225,-3.65375 z m 45.65625,-36.09375 -10.4275,17.26 -24.23625,8.1275 -1.06375,-3.17125 1.67125,-0.55875 -0.93375,-2.78625 -6.1275,2.055 0.93375,2.785 1.67125,-0.56 1.06375,3.17125 -4.45625,1.495 -1.06375,-3.17125 1.67125,-0.56125 -0.93375,-2.785 -6.12875,2.055 0.935,2.785 1.67001,-0.56 1.06374,3.17125 -4.1775,1.40125 -1.06375,-3.17125 1.67125,-0.56 -0.93374,-2.78625 -6.12876,2.05625 0.935,2.785 1.67125,-0.56 1.06375,3.17 -25.12125,8.425 -4.52625,-2.25125 c -0.2925,-0.14625 -0.44737,-0.0125 -0.34287,0.2975 l 4.168,12.4275 c 0.1045,0.31 0.30712,0.32375 0.45312,0.0325 l 2.253,-4.525 9.42126,-3.16 c -1.17426,2.51875 -1.43201,5.4725 -0.47876,8.31375 1.97376,5.88375 8.3425,9.05375 14.22626,7.08125 l 35.30874,-11.8425 c 5.8825,-1.9725 9.0525,-8.34125 7.08,-14.22375 -0.95374,-2.8425 -2.93875,-5.045 -5.39375,-6.345 l 6.18375,-2.075 18.72625,7.48375 c 0.79625,0.31875 1.245,-0.03 0.995,-0.775 l -10.0375,-29.93125 c -0.25125,-0.745 -0.8175,-0.75375 -1.26125,-0.0188"
       style="fill:#4f4c4c;fill-opacity:1;fill-rule:nonzero;stroke:none"
       id="path4167"
       inkscape:connector-curvature="0" />
  </g>
</svg>
