<?xml version="1.0" encoding="UTF-8" standalone="no"?>
<!-- Created with Inkscape (http://www.inkscape.org/) -->

<svg
   xmlns:dc="http://purl.org/dc/elements/1.1/"
   xmlns:cc="http://creativecommons.org/ns#"
   xmlns:rdf="http://www.w3.org/1999/02/22-rdf-syntax-ns#"
   xmlns:svg="http://www.w3.org/2000/svg"
   xmlns="http://www.w3.org/2000/svg"
   xmlns:sodipodi="http://sodipodi.sourceforge.net/DTD/sodipodi-0.dtd"
   xmlns:inkscape="http://www.inkscape.org/namespaces/inkscape"
   width="18.688194mm"
   height="24.782625mm"
   viewBox="0 0 66.218011 87.812451"
   id="svg4511"
   version="1.1"
   inkscape:version="0.91 r13725"
   sodipodi:docname="violin.svg">
  <defs
     id="defs4513" />
  <sodipodi:namedview
     id="base"
     pagecolor="#ffffff"
     bordercolor="#666666"
     borderopacity="1.0"
     inkscape:pageopacity="0.0"
     inkscape:pageshadow="2"
     inkscape:zoom="3.959798"
     inkscape:cx="-65.33778"
     inkscape:cy="30.623542"
     inkscape:document-units="px"
     inkscape:current-layer="layer1"
     showgrid="false"
     fit-margin-top="0"
     fit-margin-left="0"
     fit-margin-right="0"
     fit-margin-bottom="0"
     inkscape:window-width="1855"
     inkscape:window-height="1056"
     inkscape:window-x="65"
     inkscape:window-y="24"
     inkscape:window-maximized="1" />
  <metadata
     id="metadata4516">
    <rdf:RDF>
      <cc:Work
         rdf:about="">
        <dc:format>image/svg+xml</dc:format>
        <dc:type
           rdf:resource="http://purl.org/dc/dcmitype/StillImage" />
        <dc:title></dc:title>
      </cc:Work>
    </rdf:RDF>
  </metadata>
  <g
     inkscape:label="Layer 1"
     inkscape:groupmode="layer"
     id="layer1"
     transform="translate(-443.20869,-427.62052)">
    <path
       d="m 460.23744,510.01302 9.8875,-13.0225 -8.94875,-5.73 -7.68875,14.43125 c -5.16125,-4.9225 -7.97375,-12.2225 -5.69125,-16.05625 l 4.84375,-6.1825 c 6.64,1.27 12.91375,-1.50125 16.82625,-7.6125 3.27625,-5.11875 4.06125,-11.32375 2.22625,-16.4775 2.97,-3.03875 8,-3.825 12.84625,-2.1475 l -5.85,7.3975 8.3075,5.32 4.405,-8.26375 c 3.45125,3.68125 4.78875,8.5 3.29125,12.41875 -5.4475,0.49 -10.755,3.80125 -14.03375,8.91875 -3.91125,6.11125 -3.8025,12.96875 0.13,18.4675 l -3.59,6.98875 c -2.52375,3.6775 -10.33125,4.17875 -16.96125,1.55 z m 25.0725,-9.03625 c -4.00625,-4.1125 -5.2325,-10.02125 -1.45375,-15.9225 3.1625,-4.94125 8.3725,-7.58875 13.1625,-7.19625 l 0.0563,-0.11125 c 3.80625,-5.94375 2.02875,-14.08875 -3.8075,-19.5825 l 6.0925,-11.435 1.71375,1.0975 c 0.925,0.5925 2.155,0.32125 2.74625,-0.60375 0.59375,-0.92375 0.3225,-2.15375 -0.6025,-2.74625 l -1.98,-1.26875 0.535,-1.005 2.0575,1.3175 c 0.925,0.5925 2.15625,0.3225 2.74625,-0.60375 0.59375,-0.92375 0.32375,-2.15375 -0.6,-2.74625 l -2.32625,-1.48875 0.7825,-1.4675 c 1.89875,0.60625 3.755,0.25125 4.58125,-1.03625 0.84,-1.3125 0.35375,-3.1925 -1.0525,-4.67625 l 1.30625,-2.0425 -2.87125,-1.83875 -1.30625,2.0425 c -1.93625,-0.65625 -3.84875,-0.31125 -4.69,1.00125 -0.88125,1.3775 -0.3025,3.38125 1.26875,4.895 l -0.975,1.23 -2.37375,-1.52 c -0.925,-0.5925 -2.15625,-0.3225 -2.7475,0.6025 -0.5925,0.925 -0.32375,2.155 0.60125,2.7475 l 2.04125,1.30625 -0.7075,0.89375 -1.945,-1.24375 c -0.92375,-0.5925 -2.155,-0.3225 -2.74625,0.6025 -0.5925,0.92375 -0.32375,2.155 0.60125,2.7475 l 1.60875,1.03 -8.01875,10.13875 c -7.50125,-3.14625 -15.785,-1.37625 -19.63375,4.635 l -0.0775,0.0987 c 2.35875,4.18625 2.1375,10.02625 -1.02625,14.96625 -3.7775,5.90125 -9.6575,7.26125 -15.07,5.34375 l -6.51875,8.32125 c -4.4075,6.8825 1.7175,18.6725 9.92,23.925 8.2025,5.25 21.4725,5.87875 25.88,-1.005 l 4.82875,-9.4025"
       style="fill:#4f4c4c;fill-opacity:1;fill-rule:nonzero;stroke:none"
       id="path4195"
       inkscape:connector-curvature="0" />
    <path
       d="m 475.16619,484.54677 -4.89125,-3.13125 c -0.3675,-0.235 -0.85625,-0.1275 -1.09125,0.24 -0.23625,0.36875 -0.12875,0.8575 0.24,1.09375 l 4.8875,3.13 c 0.36875,0.235 0.85875,0.1275 1.09375,-0.24 0.235,-0.3675 0.12875,-0.8575 -0.23875,-1.0925"
       style="fill:#4f4c4c;fill-opacity:1;fill-rule:nonzero;stroke:none"
       id="path4197"
       inkscape:connector-curvature="0" />
  </g>
</svg>
