<?xml version="1.0" encoding="UTF-8" standalone="no"?>
<!-- Created with Inkscape (http://www.inkscape.org/) -->

<svg
   xmlns:dc="http://purl.org/dc/elements/1.1/"
   xmlns:cc="http://creativecommons.org/ns#"
   xmlns:rdf="http://www.w3.org/1999/02/22-rdf-syntax-ns#"
   xmlns:svg="http://www.w3.org/2000/svg"
   xmlns="http://www.w3.org/2000/svg"
   xmlns:sodipodi="http://sodipodi.sourceforge.net/DTD/sodipodi-0.dtd"
   xmlns:inkscape="http://www.inkscape.org/namespaces/inkscape"
   width="23.638227mm"
   height="19.52766mm"
   viewBox="0 0 83.757499 69.192495"
   id="svg4511"
   version="1.1"
   inkscape:version="0.91 r13725"
   sodipodi:docname="xylo.svg">
  <defs
     id="defs4513" />
  <sodipodi:namedview
     id="base"
     pagecolor="#ffffff"
     bordercolor="#666666"
     borderopacity="1.0"
     inkscape:pageopacity="0.0"
     inkscape:pageshadow="2"
     inkscape:zoom="3.959798"
     inkscape:cx="30.493614"
     inkscape:cy="12.939444"
     inkscape:document-units="px"
     inkscape:current-layer="layer1"
     showgrid="false"
     fit-margin-top="0"
     fit-margin-left="0"
     fit-margin-right="0"
     fit-margin-bottom="0"
     inkscape:window-width="1855"
     inkscape:window-height="1056"
     inkscape:window-x="65"
     inkscape:window-y="24"
     inkscape:window-maximized="1" />
  <metadata
     id="metadata4516">
    <rdf:RDF>
      <cc:Work
         rdf:about="">
        <dc:format>image/svg+xml</dc:format>
        <dc:type
           rdf:resource="http://purl.org/dc/dcmitype/StillImage" />
        <dc:title></dc:title>
      </cc:Work>
    </rdf:RDF>
  </metadata>
  <g
     inkscape:label="Layer 1"
     inkscape:groupmode="layer"
     id="layer1"
     transform="translate(-347.3773,-428.55637)">
    <path
       d="m 422.1123,451.98512 c -1.81125,0 -3.27875,-1.4675 -3.27875,-3.2775 0,-1.81125 1.4675,-3.2775 3.27875,-3.2775 1.80875,0 3.27625,1.46625 3.27625,3.2775 0,1.81 -1.4675,3.2775 -3.27625,3.2775 z m 0,29.17625 c -1.81125,0 -3.27875,-1.4675 -3.27875,-3.27625 0,-1.8125 1.4675,-3.27875 3.27875,-3.27875 1.80875,0 3.27625,1.46625 3.27625,3.27875 0,1.80875 -1.4675,3.27625 -3.27625,3.27625 z m 5.01125,-42.56875 -10.02625,0 c -2.2175,0 -4.01125,1.79625 -4.01125,4.01125 l 0,41.0975 c 0,2.215 1.79375,4.01125 4.01125,4.01125 l 10.02625,0 c 2.215,0 4.01125,-1.79625 4.01125,-4.01125 l 0,-41.0975 c 0,-2.215 -1.79625,-4.01125 -4.01125,-4.01125"
       style="fill:#4f4c4c;fill-opacity:1;fill-rule:nonzero;stroke:none"
       id="path4229"
       inkscape:connector-curvature="0" />
    <path
       d="m 400.2073,451.98512 c -1.80875,0 -3.27625,-1.4675 -3.27625,-3.2775 0,-1.81125 1.4675,-3.2775 3.27625,-3.2775 1.81,0 3.27625,1.46625 3.27625,3.2775 0,1.81 -1.46625,3.2775 -3.27625,3.2775 z m 0,29.17625 c -1.80875,0 -3.27625,-1.4675 -3.27625,-3.27625 0,-1.8125 1.4675,-3.27875 3.27625,-3.27875 1.81,0 3.27625,1.46625 3.27625,3.27875 0,1.80875 -1.46625,3.27625 -3.27625,3.27625 z m 5.01375,-45.91375 -10.02875,0 c -2.21375,0 -4.01,1.795 -4.01,4.01 l 0,47.78875 c 0,2.21625 1.79625,4.01125 4.01,4.01125 l 10.02875,0 c 2.215,0 4.0125,-1.795 4.0125,-4.01125 l 0,-47.78875 c 0,-2.215 -1.7975,-4.01 -4.0125,-4.01"
       style="fill:#4f4c4c;fill-opacity:1;fill-rule:nonzero;stroke:none"
       id="path4231"
       inkscape:connector-curvature="0" />
    <path
       d="m 378.30605,451.98512 c -1.81,0 -3.27625,-1.4675 -3.27625,-3.2775 0,-1.81125 1.46625,-3.2775 3.27625,-3.2775 1.81,0 3.2775,1.46625 3.2775,3.2775 0,1.81 -1.4675,3.2775 -3.2775,3.2775 z m 0,29.17625 c -1.81,0 -3.27625,-1.4675 -3.27625,-3.27625 0,-1.8125 1.46625,-3.27875 3.27625,-3.27875 1.81,0 3.2775,1.46625 3.2775,3.27875 0,1.80875 -1.4675,3.27625 -3.2775,3.27625 z m 5.01375,-49.25875 -10.02875,0 c -2.215,0 -4.01125,1.795 -4.01125,4.01125 l 0,54.47875 c 0,2.215 1.79625,4.01125 4.01125,4.01125 l 10.02875,0 c 2.215,0 4.01,-1.79625 4.01,-4.01125 l 0,-54.47875 c 0,-2.21625 -1.795,-4.01125 -4.01,-4.01125"
       style="fill:#4f4c4c;fill-opacity:1;fill-rule:nonzero;stroke:none"
       id="path4233"
       inkscape:connector-curvature="0" />
    <path
       d="m 356.40355,451.98512 c -1.81,0 -3.27875,-1.4675 -3.27875,-3.2775 0,-1.81125 1.46875,-3.2775 3.27875,-3.2775 1.80875,0 3.27625,1.46625 3.27625,3.2775 0,1.81 -1.4675,3.2775 -3.27625,3.2775 z m 0,29.17625 c -1.81,0 -3.27875,-1.4675 -3.27875,-3.27625 0,-1.8125 1.46875,-3.27875 3.27875,-3.27875 1.80875,0 3.27625,1.46625 3.27625,3.27875 0,1.80875 -1.4675,3.27625 -3.27625,3.27625 z m 5.0125,-52.605 -10.0275,0 c -2.21375,0 -4.01125,1.79625 -4.01125,4.01125 l 0,61.17 c 0,2.215 1.7975,4.01125 4.01125,4.01125 l 10.0275,0 c 2.21625,0 4.01125,-1.79625 4.01125,-4.01125 l 0,-61.17 c 0,-2.215 -1.795,-4.01125 -4.01125,-4.01125"
       style="fill:#4f4c4c;fill-opacity:1;fill-rule:nonzero;stroke:none"
       id="path4235"
       inkscape:connector-curvature="0" />
  </g>
</svg>
